<svg xmlns="http://www.w3.org/2000/svg" width="96" height="96" viewBox="0 0 96 96">
  <g id="button_toy_selected" transform="translate(-830 -1472)">
    <rect id="area" width="96" height="96" rx="40" transform="translate(830 1472)" fill="#eaeaf2"/>
    <path id="icon" d="M27.051-492.487a12.232,12.232,0,0,0-3.3.8,10.542,10.542,0,0,0-5.379,5.1,5.036,5.036,0,0,1-3.429,2.753,10.828,10.828,0,0,1-2.014-.077c-1.925-.2-2.5-.076-2.792.612a2.666,2.666,0,0,0,.217,2.141c.714,1.453,3.212,3.505,5.991,4.895,1.9.956,2.422,1.5,2.422,2.549,0,.88-.382,1.39-1.861,2.486a14.457,14.457,0,0,0-4.652,17.719,14.791,14.791,0,0,0,7.036,6.9c3.11,1.543,6.335,2.09,12.352,2.1a40.71,40.71,0,0,0,10.516-1.1c9.432-2.269,14.952-7.572,16.469-15.806a25.029,25.029,0,0,0-.013-6.692,16.861,16.861,0,0,0-2.371-6.119,10.428,10.428,0,0,0-1.772-2.04,5.644,5.644,0,0,0-.778,1.045c-2.129,3.289-5.15,4.92-9.879,5.354a23.324,23.324,0,0,1-6.412-.4,3.67,3.67,0,0,1-2.5-1.211,1.421,1.421,0,0,1-.382-1.2c0-.88.153-1.185,1.249-2.5a11.723,11.723,0,0,0,2.142-3.9,8.352,8.352,0,0,0,.293-3,6.866,6.866,0,0,0-.421-3.238,10.077,10.077,0,0,0-2.358-3.913A10.5,10.5,0,0,0,27.051-492.487Zm-1.287,6.514a1.983,1.983,0,0,1,.867,1.453A1.958,1.958,0,0,1,22.96-483.4a2,2,0,0,1,1.032-2.792A2.391,2.391,0,0,1,25.764-485.974Z" transform="translate(843.58 1988.508)" fill="#b4b4cc"/>
  </g>
</svg>
