<svg xmlns="http://www.w3.org/2000/svg" width="96" height="96" viewBox="0 0 96 96">
  <g id="button_block_selected" transform="translate(-830 -1472)">
    <rect id="area" width="96" height="96" rx="40" transform="translate(830 1472)" fill="#eaeaf2"/>
    <path id="icon" d="M-1152.036-9163.982V-9183.9a2.7,2.7,0,0,1,1.339-2.291h.011l19.029-9.868a1.324,1.324,0,0,1,.546-.108,1.3,1.3,0,0,1,1.362,1.234v19.692a2.72,2.72,0,0,1-1.468,2.367l-.032.012-18.717,9.933a.24.24,0,0,1-.056.03,1.452,1.452,0,0,1-.652.15A1.293,1.293,0,0,1-1152.036-9163.982Zm-5.506,1.038-18.719-9.931-.021-.012a2.716,2.716,0,0,1-1.468-2.367v-19.692a1.3,1.3,0,0,1,1.362-1.232,1.5,1.5,0,0,1,.546.106l19.038,9.878a2.678,2.678,0,0,1,1.329,2.293v19.907a1.306,1.306,0,0,1-1.359,1.232A1.391,1.391,0,0,1-1157.542-9162.944Zm2.441-25.809-19.875-10.479s-.888-.525-.888-1.232c0-.666.858-1.02.858-1.02l19.489-8.752a6.028,6.028,0,0,1,1.766-.516,6.139,6.139,0,0,1,1.78.516l19.468,8.752s.793.321.781,1a1.55,1.55,0,0,1-.8,1.229l-19.864,10.49a3.316,3.316,0,0,1-1.362.291A3.312,3.312,0,0,1-1155.1-9188.753Z" transform="translate(2031.75 10706.75)" fill="#b4b4cc"/>
  </g>
</svg>
