<svg xmlns="http://www.w3.org/2000/svg" width="96" height="96" viewBox="0 0 96 96">
  <g id="button_resource_selected" transform="translate(-830 -1472)">
    <rect id="area" width="96" height="96" rx="40" transform="translate(830 1472)" fill="#eaeaf2"/>
    <path id="icon" d="M44.459,23.852a4.286,4.286,0,0,0,0-6.061L30.173,3.505a4.286,4.286,0,0,0-6.061,0L1.255,26.362a4.286,4.286,0,0,0,0,6.061l8.571,8.571a4.286,4.286,0,0,0,3.031,1.255H44.643a1.071,1.071,0,0,0,1.071-1.071V37.607a1.071,1.071,0,0,0-1.071-1.071H31.775L44.459,23.852ZM17.439,18.26,29.7,30.526l-6.01,6.01H13.449L6.306,29.393,17.439,18.26Z" transform="translate(855.143 1497.75)" fill="#b4b4cc"/>
  </g>
</svg>
