<svg xmlns="http://www.w3.org/2000/svg" width="96" height="96" viewBox="0 0 96 96">
  <g id="button_resource" transform="translate(-830 -1472)">
    <g id="area" transform="translate(830 1472)" fill="#fff" stroke="#dcdceb" stroke-width="4">
      <rect width="96" height="96" rx="40" stroke="none"/>
      <rect x="2" y="2" width="92" height="92" rx="38" fill="none"/>
    </g>
    <path id="icon" d="M17.25,0a5.823,5.823,0,0,0-4.14,1.61A5.823,5.823,0,0,0,11.5,5.75c0,1.61,1.035,2.76,1.61,4.14a4.142,4.142,0,0,1,.173,1.61H0V46H13.283a5.678,5.678,0,0,0-.173-1.61c-.575-1.38-1.61-2.53-1.61-4.14a5.823,5.823,0,0,1,1.61-4.14,5.823,5.823,0,0,1,4.14-1.61,5.823,5.823,0,0,1,4.14,1.61A5.823,5.823,0,0,1,23,40.25c0,1.61-1.035,2.76-1.61,4.14A4.142,4.142,0,0,0,21.217,46H34.5V32.717a5.678,5.678,0,0,1,1.61.173c1.38.575,2.53,1.61,4.14,1.61a5.752,5.752,0,1,0,0-11.5c-1.61,0-2.76,1.035-4.14,1.61a4.142,4.142,0,0,1-1.61.173V11.5H21.218a5.678,5.678,0,0,1,.173-1.61C21.965,8.51,23,7.36,23,5.75a5.823,5.823,0,0,0-1.61-4.14A5.823,5.823,0,0,0,17.25,0Z" transform="translate(859 1495)" fill="#787882"/>
  </g>
</svg>
