<svg xmlns="http://www.w3.org/2000/svg" width="96" height="96" viewBox="0 0 96 96">
  <g id="button_general" transform="translate(-830 -1472)">
    <g id="area" transform="translate(830 1472)" fill="#fff" stroke="#dcdceb" stroke-width="4">
      <rect width="96" height="96" rx="40" stroke="none"/>
      <rect x="2" y="2" width="92" height="92" rx="38" fill="none"/>
    </g>
    <path id="icon" d="M38.323,12A3.809,3.809,0,0,0,34.5,15.824V24h-.75V7.48a3.809,3.809,0,0,0-3.823-3.823A3.75,3.75,0,0,0,26.25,7.406V24H25.5V3.824A3.809,3.809,0,0,0,21.677,0,3.75,3.75,0,0,0,18,3.75V24h-.75V7.574a3.809,3.809,0,0,0-3.823-3.823A3.75,3.75,0,0,0,9.75,7.5V29.624l-2.967-4.08A3.75,3.75,0,1,0,.717,29.956L12.493,46.147A4.5,4.5,0,0,0,16.132,48H34.656a4.5,4.5,0,0,0,4.38-3.469l2.485-10.562A18,18,0,0,0,42,29.846V15.75A3.75,3.75,0,0,0,38.323,12Z" transform="translate(856 1496)" fill="#787882"/>
  </g>
</svg>
